<?xml version="1.0" standalone="no"?>
<!DOCTYPE svg PUBLIC "-//W3C//DTD SVG 20010904//EN"
 "http://www.w3.org/TR/2001/REC-SVG-20010904/DTD/svg10.dtd">
<svg version="1.0" xmlns="http://www.w3.org/2000/svg"
 width="40px" height="39px" viewBox="0 0 860.000000 670.000000"
 preserveAspectRatio="xMidYMid meet" fill="white">
<metadata>
Created by potrace 1.16, written by Peter Selinger 2001-2019
</metadata>
<g transform="translate(0.000000,670.000000) scale(0.100000,-0.100000)"
fill="#FFFFF" stroke="none">
<path d="M4224 6270 c-73 -37 -245 -183 -390 -331 -299 -307 -482 -575 -669
-981 -29 -62 -56 -108 -64 -108 -8 0 -48 20 -90 44 -233 134 -532 255 -806
326 -241 62 -458 77 -505 35 -66 -60 -188 -414 -249 -720 -51 -257 -56 -778
-10 -1058 6 -38 8 -71 5 -74 -3 -3 -74 -12 -158 -19 -339 -28 -663 -107 -878
-213 -115 -57 -125 -89 -94 -298 64 -440 266 -886 576 -1276 106 -132 333
-359 473 -471 431 -345 935 -564 1505 -653 91 -14 175 -18 405 -17 254 0 306
3 419 22 166 29 253 51 435 112 82 28 158 50 171 50 13 0 91 -23 174 -51 175
-59 305 -91 466 -116 163 -25 625 -25 790 0 349 54 634 144 945 297 856 422
1482 1241 1610 2107 22 151 20 195 -10 231 -32 38 -135 92 -264 136 -212 74
-432 118 -689 140 -89 7 -165 16 -168 19 -3 3 -1 36 5 74 45 274 40 805 -10
1058 -60 302 -184 661 -249 720 -54 49 -324 19 -645 -72 -167 -48 -500 -193
-680 -296 -44 -26 -83 -43 -86 -39 -4 4 -31 59 -60 122 -80 174 -183 362 -264
486 -203 305 -511 629 -754 791 -69 46 -128 53 -187 23z m206 -370 c410 -345
740 -874 913 -1470 77 -263 99 -403 118 -738 13 -230 6 -499 -16 -666 -86
-645 -354 -1247 -758 -1707 -86 -98 -298 -295 -355 -331 l-33 -20 -37 25 c-57
37 -241 206 -320 294 -352 388 -590 849 -727 1406 -69 283 -70 298 -70 802 0
496 0 493 70 780 125 508 342 949 649 1317 123 147 402 408 437 408 5 0 63
-45 129 -100z m-2362 -921 c291 -59 534 -157 850 -341 76 -45 101 -64 98 -77
-3 -9 -21 -79 -40 -156 -87 -351 -108 -532 -109 -910 0 -388 21 -578 103 -904
143 -566 394 -1053 750 -1450 50 -55 90 -102 90 -105 0 -12 -129 28 -235 73
-530 224 -1019 630 -1351 1121 -277 410 -456 866 -525 1339 -44 302 -36 690
21 972 39 191 111 411 147 447 26 26 30 26 201 -9z m4668 10 c15 -13 54 -113
89 -228 128 -430 139 -957 30 -1446 -196 -877 -830 -1701 -1621 -2107 -172
-89 -444 -193 -444 -171 0 2 37 46 83 96 474 527 768 1224 853 2020 21 201 14
576 -15 792 -26 190 -83 470 -127 617 -4 12 17 30 83 69 222 131 374 202 574
267 300 98 453 126 495 91z m724 -1884 c164 -21 431 -89 534 -137 l29 -12 -6
-81 c-10 -151 -113 -455 -233 -685 -267 -512 -707 -929 -1259 -1196 -246 -118
-532 -211 -768 -249 -166 -26 -439 -38 -619 -26 -146 10 -187 16 -278 37 -20
5 5 16 111 54 328 114 632 283 920 510 140 111 453 428 563 570 267 347 439
667 577 1079 27 80 54 149 61 153 16 11 218 2 368 -17z m-5921 -52 c152 -433
261 -662 447 -945 223 -338 530 -658 853 -888 241 -171 591 -349 848 -431 40
-12 71 -25 68 -27 -12 -13 -150 -33 -293 -42 -168 -12 -443 -2 -597 21 -339
51 -754 207 -1067 402 -245 152 -529 401 -698 611 -241 299 -424 676 -504
1037 -39 174 -44 160 75 203 156 56 261 80 519 119 14 3 93 5 175 6 l150 1 24
-67z"/>
</g>
</svg>
