<?xml version="1.0" standalone="no"?>
<!DOCTYPE svg PUBLIC "-//W3C//DTD SVG 20010904//EN"
 "http://www.w3.org/TR/2001/REC-SVG-20010904/DTD/svg10.dtd">
<svg version="1.0" xmlns="http://www.w3.org/2000/svg"
 width="640.000000pt" height="640.000000pt" viewBox="0 0 640.000000 640.000000"
 preserveAspectRatio="xMidYMid meet">
<metadata>
Created by potrace 1.11, written by Peter Selinger 2001-2013
</metadata>
<g transform="translate(0.000000,640.000000) scale(0.100000,-0.100000)"
fill="#000000" stroke="none">
<path d="M3170 5380 c-31 -9 -96 -50 -127 -79 -12 -12 -25 -21 -28 -21 -12 0
-263 -259 -320 -330 -33 -41 -63 -77 -66 -80 -26 -22 -164 -254 -231 -386 -46
-90 -87 -164 -91 -164 -5 0 -55 24 -110 53 -169 89 -376 171 -517 207 -25 6
-52 14 -60 17 -8 3 -24 8 -35 10 -140 24 -189 29 -276 24 -34 -1 -59 -26 -85
-81 -27 -56 -69 -170 -85 -230 -17 -61 -17 -62 -23 -85 -17 -59 -46 -208 -53
-265 -10 -82 -9 -546 1 -620 15 -116 16 -108 -12 -114 -15 -3 -58 -8 -97 -11
-38 -4 -81 -8 -95 -10 -14 -2 -45 -7 -70 -10 -64 -9 -190 -34 -226 -46 -17 -5
-40 -11 -50 -13 -61 -13 -222 -81 -256 -109 -25 -20 -37 -60 -33 -104 13 -113
23 -179 35 -218 5 -16 11 -42 14 -56 17 -101 173 -465 222 -520 8 -8 14 -19
14 -22 0 -7 97 -153 115 -172 6 -6 24 -29 40 -51 69 -90 309 -320 425 -407
180 -136 523 -306 710 -353 8 -2 51 -13 95 -25 44 -11 89 -22 100 -24 11 -2
29 -6 40 -8 116 -28 519 -42 650 -22 136 19 166 25 240 47 39 11 75 21 80 23
6 1 17 5 25 8 61 23 148 47 170 47 14 0 73 -16 130 -35 96 -31 248 -71 310
-81 137 -22 548 -23 641 -3 20 5 51 11 70 13 40 6 73 13 99 21 10 3 27 7 37 9
60 12 232 65 248 76 6 4 28 13 50 20 22 7 77 30 122 52 45 21 86 38 89 38 4 0
15 6 23 14 9 8 39 26 66 41 172 93 375 250 516 400 29 32 59 63 64 69 29 30
144 176 170 216 17 25 33 47 38 48 4 2 7 8 7 13 0 5 12 28 27 52 70 110 197
404 218 504 2 10 11 50 20 88 23 96 31 180 26 260 -3 54 -257 158 -486 200
-16 2 -41 7 -55 10 -30 5 -118 14 -215 22 -75 6 -98 16 -91 42 27 93 28 655 2
786 -7 35 -44 189 -56 230 -6 22 -12 47 -14 55 -7 27 -47 134 -67 177 -10 24
-19 46 -19 50 0 5 -11 20 -24 36 -19 22 -33 28 -76 30 -100 6 -381 -48 -486
-93 -24 -11 -44 -17 -44 -15 0 3 -35 -12 -77 -31 -43 -20 -82 -37 -88 -38 -5
-1 -70 -32 -143 -69 -74 -37 -137 -67 -142 -67 -4 0 -44 73 -89 163 -44 89
-95 185 -112 212 -93 145 -81 128 -175 245 -172 213 -409 426 -494 443 -14 3
-36 1 -50 -3z m63 -232 c46 -33 92 -73 177 -158 354 -353 604 -902 646 -1420
17 -202 8 -575 -15 -681 -5 -24 -12 -62 -15 -84 -5 -31 -42 -175 -69 -270 -17
-57 -51 -152 -58 -159 -5 -6 -9 -16 -9 -23 0 -7 -22 -61 -50 -119 -27 -58 -50
-110 -50 -115 0 -5 -4 -9 -8 -9 -5 0 -16 -17 -26 -37 -15 -32 -103 -174 -129
-208 -124 -163 -300 -350 -388 -411 l-38 -26 -46 32 c-54 37 -248 227 -290
285 -17 22 -37 48 -46 58 -9 10 -34 43 -55 75 -21 31 -41 59 -45 62 -3 3 -20
32 -39 65 -18 33 -39 67 -46 75 -7 8 -13 18 -14 22 0 4 -25 58 -55 120 -55
115 -64 139 -115 289 -30 91 -49 158 -57 199 -2 14 -10 50 -18 80 -8 30 -18
80 -22 110 -10 70 -10 738 -1 806 9 61 75 319 87 342 5 10 8 19 8 22 -5 18 89
249 148 365 88 173 137 250 252 395 93 118 322 340 351 340 2 0 18 -10 35 -22z
m-1703 -732 c34 -7 112 -27 130 -33 8 -4 24 -8 35 -10 118 -22 522 -222 543
-268 6 -12 6 -28 2 -36 -9 -15 -45 -154 -54 -204 -3 -16 -7 -40 -10 -51 -2
-12 -7 -37 -10 -55 -3 -19 -8 -43 -10 -55 -20 -96 -27 -514 -12 -694 4 -52 9
-97 11 -100 2 -3 6 -29 10 -57 3 -29 10 -67 15 -84 5 -17 9 -34 8 -38 0 -3 1
-9 2 -13 3 -10 4 -13 14 -58 14 -63 53 -193 85 -284 31 -88 136 -331 152 -352
5 -6 21 -33 35 -60 27 -51 132 -215 143 -224 3 -3 26 -32 51 -64 52 -69 82
-104 128 -152 17 -19 32 -37 32 -40 0 -4 -51 1 -57 6 -2 2 -6 3 -10 5 -8 2
-19 6 -68 24 -68 26 -224 105 -310 157 -180 108 -311 213 -466 373 -189 193
-323 385 -445 637 -60 124 -155 385 -167 459 -3 17 -8 37 -11 45 -5 16 -17 78
-22 120 -1 14 -3 25 -4 25 -9 0 -24 210 -24 340 0 299 47 550 137 734 11 22
16 23 67 17 30 -3 66 -8 80 -10z m3477 6 c27 -17 94 -231 119 -377 34 -204 38
-516 9 -676 -3 -13 -7 -40 -9 -59 -16 -113 -56 -272 -97 -382 -17 -46 -32 -89
-32 -95 0 -7 -4 -13 -9 -13 -4 0 -8 -7 -8 -15 0 -19 -144 -302 -166 -326 -8
-8 -14 -21 -14 -27 0 -7 -4 -12 -10 -12 -5 0 -10 -5 -10 -10 0 -13 -121 -181
-184 -256 -74 -87 -251 -261 -331 -325 -93 -74 -200 -149 -213 -149 -6 0 -12
-4 -14 -8 -11 -26 -282 -157 -425 -205 -37 -13 -41 -12 -35 2 3 9 13 23 22 31
8 8 38 42 65 75 28 33 52 62 55 65 28 28 161 226 201 300 13 25 27 47 32 48 4
2 7 11 7 20 0 8 6 23 13 31 23 27 147 324 161 386 2 6 9 30 16 55 19 63 18 61
30 105 6 22 13 51 16 64 2 12 11 51 19 85 8 33 17 84 21 111 3 28 8 59 10 70
26 134 26 562 0 740 -16 105 -65 342 -81 388 -12 35 -11 40 8 58 36 33 194
119 327 177 91 39 295 104 370 117 19 3 36 8 39 11 7 7 85 4 98 -4z m468
-1397 c130 -10 385 -68 471 -107 23 -11 25 -15 20 -62 -11 -107 -38 -202 -101
-357 -155 -379 -412 -683 -785 -927 -63 -41 -294 -162 -335 -175 -11 -3 -45
-16 -75 -27 -120 -46 -265 -88 -367 -105 -18 -3 -47 -7 -63 -10 -27 -5 -246
-17 -310 -17 -45 0 -204 11 -230 17 -14 3 -37 6 -52 7 -16 1 -28 6 -28 10 0 8
38 26 65 32 6 1 27 10 49 19 21 9 43 17 49 17 5 0 78 33 161 74 249 122 434
255 626 448 159 161 196 203 275 310 41 57 79 108 83 113 4 6 23 37 43 70 114
187 168 305 270 582 20 55 39 94 49 96 17 3 68 1 185 -8z m-4339 -15 c1 -8 14
-46 29 -85 14 -38 28 -74 29 -80 5 -17 18 -49 37 -92 10 -24 19 -45 19 -48 0
-3 14 -36 31 -73 18 -37 39 -83 48 -102 26 -56 130 -228 184 -305 161 -228
309 -381 564 -585 18 -14 185 -123 208 -136 148 -79 212 -111 303 -150 59 -25
112 -47 117 -48 6 -1 28 -8 50 -16 34 -11 37 -14 19 -21 -46 -16 -138 -23
-329 -23 -174 -1 -337 8 -354 19 -4 2 -22 6 -41 9 -30 5 -67 14 -130 31 -111
29 -342 121 -460 183 -70 37 -269 166 -312 204 -14 13 -45 38 -67 57 -93 75
-241 231 -306 321 -22 30 -43 57 -47 58 -5 2 -8 10 -8 17 0 8 -6 20 -13 27
-30 30 -177 311 -177 338 0 6 -4 18 -9 28 -8 15 -21 45 -26 62 -1 3 -11 37
-22 75 -20 67 -27 94 -39 159 -3 16 -7 33 -10 37 -11 18 12 40 64 59 88 33
199 62 287 76 22 3 60 9 85 13 25 4 96 7 159 6 93 0 115 -3 117 -15z"/>
</g>
</svg>
